<svg width="23" height="26" viewBox="0 0 23 26" fill="none" xmlns="http://www.w3.org/2000/svg">
<path d="M21.6667 20.5V21.5H22.6667V20.5H21.6667ZM21.6667 1H22.6667V0H21.6667V1ZM1.66667 1V0H0.666672V1H1.66667ZM1.66667 20.5H0.666672V21.5H1.66667V20.5ZM4.40774 24.6022C4.18804 25.1089 4.42069 25.6978 4.92739 25.9175C5.43409 26.1372 6.02296 25.9045 6.24267 25.3978L4.40774 24.6022ZM17.5972 24.9384C17.8393 25.4348 18.438 25.6409 18.9344 25.3988C19.4307 25.1566 19.6368 24.558 19.3947 24.0616L17.5972 24.9384ZM2.39838 2H20.935V0H2.39838V2ZM20.935 21.5H21.6667V19.5H20.935V21.5ZM22.6667 20.5V1H20.6667V20.5H22.6667ZM21.6667 0H20.935V2H21.6667V0ZM1.66667 2H2.39838V0H1.66667V2ZM2.66667 20.5V1H0.666672V20.5H2.66667ZM1.66667 21.5H2.39838V19.5H1.66667V21.5ZM1.39838 1V11H3.39838V1H1.39838ZM1.39838 11V20.5H3.39838V11H1.39838ZM19.935 1V11H21.935V1H19.935ZM19.935 11V20.5H21.935V11H19.935ZM2.39838 12H20.935V10H2.39838V12ZM8.73984 7H15.0813V5H8.73984V7ZM8.73984 17H15.0813V15H8.73984V17ZM2.39838 21.5H7.27643V19.5H2.39838V21.5ZM6.35896 20.1022L4.40774 24.6022L6.24267 25.3978L8.19389 20.8978L6.35896 20.1022ZM7.27643 21.5H16.5447V19.5H7.27643V21.5ZM16.5447 21.5H20.935V19.5H16.5447V21.5ZM15.646 20.9384L17.5972 24.9384L19.3947 24.0616L17.4435 20.0616L15.646 20.9384Z" fill="#171B24" fill-opacity="0.2"/>
</svg>
