<svg width="22" height="27" viewBox="0 0 22 27" fill="none" xmlns="http://www.w3.org/2000/svg">
<path d="M6.93434 20.1389L4 26L11 26H18L15.0751 20.1347M6.93434 20.1389C3.43764 18.581 1 15.0752 1 11M6.93434 20.1389C8.17651 20.6924 9.55233 21 11 21M15.0751 20.1347C18.5667 18.5747 21 15.0715 21 11M15.0751 20.1347C13.8304 20.6908 12.4513 21 11 21M21 11C21 16.5228 16.5228 21 11 21M21 11C21 5.47715 16.5228 1 11 1C5.47715 1 1 5.47715 1 11M11 21C5.47715 21 1 16.5228 1 11M8 11V12C8 13.6569 9.34315 15 11 15V15C12.6569 15 14 13.6569 14 12V11" stroke="#171B24" stroke-opacity="0.2" stroke-width="2"/>
</svg>
